<svg xmlns="http://www.w3.org/2000/svg" width="96" height="96" viewBox="0 0 96 96">
  <defs>
    <linearGradient id="blade" x1="0" y1="0" x2="1" y2="1">
      <stop offset="0%" stop-color="#ecf7ff"/>
      <stop offset="45%" stop-color="#82c6ff"/>
      <stop offset="100%" stop-color="#1789d8"/>
    </linearGradient>
    <linearGradient id="guard" x1="0" y1="0" x2="1" y2="0">
      <stop offset="0%" stop-color="#f7ea78"/>
      <stop offset="100%" stop-color="#d29a2c"/>
    </linearGradient>
    <linearGradient id="handle" x1="0" y1="0" x2="0" y2="1">
      <stop offset="0%" stop-color="#f6f7fb"/>
      <stop offset="100%" stop-color="#65748a"/>
    </linearGradient>
  </defs>
  <g transform="translate(48 48) rotate(24) translate(-48 -48)">
    <path d="M44 10 L52 10 L56 52 L40 52 Z" fill="url(#blade)" stroke="#f7fbff" stroke-width="2"/>
    <path d="M45 16 L51 16 L53 48 L43 48 Z" fill="#d9efff" opacity="0.6"/>
    <path d="M34 48 L62 48 L66 56 L30 56 Z" fill="url(#guard)" stroke="#7d4f08" stroke-width="2"/>
    <rect x="43" y="56" width="10" height="20" rx="4" fill="#d24157" stroke="#74293a" stroke-width="2"/>
    <rect x="45" y="59" width="6" height="14" rx="3" fill="#ff96a5" opacity="0.7"/>
    <rect x="41" y="76" width="14" height="8" rx="3" fill="url(#handle)" stroke="#354356" stroke-width="2"/>
    <circle cx="48" cy="34" r="8" fill="#f8c751" stroke="#83590c" stroke-width="2"/>
    <path d="M48 23 L50.4 30.4 L58 30.4 L52 35.1 L54.3 42.6 L48 38.2 L41.7 42.6 L44 35.1 L38 30.4 L45.6 30.4 Z" fill="#fff8cf"/>
  </g>
</svg>
